<svg width="740" height="419" viewBox="0 0 740 419" fill="none" xmlns="http://www.w3.org/2000/svg">
<path d="M618.36 0.323792C608.846 3.30368 605.552 14.2299 611.982 21.3922C614.283 23.9538 617.001 25.2608 621.027 25.7313L624.007 26.0972L623.275 28.8157C622.857 30.2795 622.543 33.2071 622.543 35.246V39.0624H618.726C613.603 39.0624 612.871 39.5851 613.655 42.931C614.544 47.0087 616.426 49.675 619.667 51.5047C620.347 51.8184 620.295 52.3412 619.354 54.746C617.942 58.3532 617.472 65.4109 618.308 69.5409C619.981 77.435 626.15 85.2245 633.678 88.884L637.704 90.8706V95.0006V99.1829H634.828C627.718 99.1829 620.138 101.797 614.596 106.241C610.937 109.116 609.369 111.364 597.344 131.073C592.169 139.542 587.777 146.652 587.621 146.861C587.411 147.018 584.693 146.861 581.504 146.495C578.367 146.077 574.394 145.763 572.721 145.711C570.421 145.711 568.33 145.136 563.572 143.306C560.227 141.999 554.633 139.856 551.182 138.601C547.732 137.294 543.602 135.726 542.034 135.046L539.158 133.844L538.269 128.145C535.917 113.246 535.29 111.678 530.48 109.22L528.18 108.07L481.861 108.175L435.594 108.332L433.398 109.743C430.262 111.834 428.484 115.18 428.484 118.944C428.536 120.565 430.68 135.935 433.241 152.978C435.855 170.073 437.999 184.293 437.999 184.502C437.999 184.711 400.41 184.868 354.51 184.816L270.968 184.659L270.811 176.712L270.654 168.766L272.902 168.609C274.732 168.505 275.15 168.243 275.15 167.407C275.15 166.57 274.732 166.309 272.902 166.204L270.707 166.047L270.811 157.056L270.968 148.116L275.15 147.488C280.901 146.652 283.41 145.92 287.645 143.829C297.264 138.967 301.865 134.367 315.457 115.442C322.358 105.875 322.829 105.143 322.044 104.254C321.051 103.104 321.94 102.058 312.373 115.337C301.028 131.125 295.591 136.719 287.436 140.954C282.888 143.306 276.51 145.188 272.955 145.188H270.707V136.301V127.413H272.484C274.314 127.413 275.778 126.316 275.15 125.322C274.994 125.061 273.896 124.8 272.746 124.8H270.707V115.703V106.554L272.955 106.397C274.732 106.293 275.15 106.031 275.15 105.195C275.15 104.359 274.732 104.097 272.955 103.993L270.707 103.836V94.687V85.5905H272.746C273.896 85.5905 274.994 85.329 275.15 85.0677C275.778 84.0744 274.314 82.9765 272.484 82.9765H270.707V74.0891V65.2018H272.484C274.314 65.2018 275.778 64.1039 275.15 63.1106C274.994 62.8492 273.896 62.5878 272.746 62.5878H270.707V59.1897V55.7916H272.537C275.046 55.7916 280.169 57.569 284.142 59.7647C289.789 62.9015 295.121 67.6066 308.557 81.2513C321.103 94.0073 321.626 94.4256 322.358 93.38C323.09 92.3344 322.567 91.7593 311.955 80.9899C298.258 67.0838 293.971 63.1629 288.272 59.3988C283.254 56.0007 279.28 54.3278 274.262 53.5436L270.707 52.9685V48.6294V44.3425L272.955 44.1857C274.732 44.0811 275.15 43.8197 275.15 42.9833C275.15 42.1468 274.732 41.8854 272.955 41.7809L270.707 41.624V29.5999C270.707 19.0919 270.602 17.5758 269.87 17.2621C269.4 17.1053 268.825 17.2621 268.563 17.6804C268.302 18.0986 268.093 23.6401 268.093 30.0181V41.624L266.159 41.7809C264.59 41.8854 264.172 42.1468 264.172 42.9833C264.172 43.8197 264.59 44.0811 266.159 44.1857L268.093 44.3425V53.4913V62.5878H265.949C264.067 62.5878 263.858 62.6924 264.015 63.7379C264.12 64.7312 264.538 64.9926 266.159 65.0972L268.093 65.254V74.1414V82.9765H266.838C264.904 82.9765 263.911 83.4993 263.911 84.5972C263.911 85.3813 264.276 85.5905 266.002 85.5905H268.093V94.687V103.836L266.159 103.993C264.59 104.097 264.172 104.359 264.172 105.195C264.172 106.031 264.59 106.293 266.159 106.397L268.093 106.554V115.703V124.8H266.002C264.276 124.8 263.911 125.009 263.911 125.793C263.911 126.891 264.904 127.413 266.838 127.413H268.093V136.249V145.136L266.159 145.293C264.538 145.397 264.12 145.659 264.015 146.6C263.858 147.698 264.067 147.802 265.949 147.802H268.093V156.899V166.047L266.159 166.204C264.59 166.309 264.172 166.57 264.172 167.407C264.172 168.243 264.59 168.505 266.159 168.609L268.093 168.766V175.562C268.093 179.274 267.988 182.306 267.831 182.306C267.727 182.306 266.054 181.208 264.12 179.849C262.238 178.542 258.108 176.137 254.971 174.464C249.377 171.589 249.325 171.537 250.318 170.491C251.886 168.871 252.148 166.884 250.945 165.682C249.116 163.852 246.345 163.434 233.066 162.963C225.12 162.702 217.487 162.074 212.991 161.395C208.966 160.82 205.515 160.506 205.358 160.715C205.149 160.976 204.574 162.283 204.104 163.747C203.163 166.361 203.163 166.413 205.045 175.405C206.09 180.372 206.927 184.554 206.927 184.711C206.927 184.816 202.954 184.92 198.144 184.92H189.361L188.159 183.561C186.695 181.888 182.617 180.006 178.487 179.117L175.455 178.438L177.703 177.758C178.958 177.392 180.84 177.078 181.885 177.078C185.179 177.078 188.891 175.667 189.57 174.203C191.452 170.021 188.159 167.041 179.742 165.211C176.187 164.479 173.102 164.27 164.32 164.322C154.543 164.375 150.309 164.636 142.833 165.838L140.689 166.204L140.324 156.637C140.114 151.357 139.748 146.809 139.487 146.547C139.226 146.286 138.703 146.234 138.285 146.391C137.657 146.6 137.605 148.377 137.814 156.846L138.076 166.988L131.854 168.452C128.404 169.236 123.385 170.387 120.667 171.066C109.322 173.889 77.6413 181.313 77.5368 181.156C77.4845 181.051 77.7459 176.66 78.1118 171.328C79.1051 157.003 79.0529 155.644 77.7982 155.644C77.2231 155.644 76.7526 155.696 76.7003 155.749C76.7003 155.853 76.2298 162.022 75.707 169.498C74.9751 179.797 74.9228 183.247 75.3411 183.665C75.8116 184.136 80.5167 183.195 94.266 179.901C104.356 177.549 112.773 175.562 113.034 175.562C113.348 175.51 112.929 176.137 112.198 176.921C106.238 183.299 105.349 197.676 110.316 206.929C112.354 210.798 116.641 214.876 120.458 216.653L123.438 218.013L89.2995 229.671C70.5314 236.101 53.6454 241.643 51.8156 241.904C43.2419 243.263 34.0931 239.185 29.1266 231.814C26.7741 228.207 24.9966 222.979 24.9966 219.424C24.9966 214.928 34.8773 134.053 35.9752 129.766C37.2821 124.59 40.0529 118.631 42.876 114.971C46.4832 110.318 53.0703 106.084 57.88 105.404C58.9778 105.195 59.1869 105.561 60.2325 109.22C61.7486 114.448 64.258 118.474 68.2311 122.186C84.4376 137.033 110.211 129.243 115.7 107.809C116.118 106.136 116.484 103.836 116.484 102.738C116.484 100.438 116.798 100.333 121.399 101.535C126.365 102.842 131.07 105.456 134.521 108.854C139.748 113.978 140.428 115.86 144.715 137.608C146.806 147.959 148.636 156.637 148.897 156.846C149.106 157.108 149.577 156.48 149.943 155.435C150.466 153.814 150.1 151.514 146.806 135.412C142.572 114.448 141.84 112.514 136.612 107.286C130.391 101.065 121.66 97.876 111.57 98.2419L106.133 98.3987L105.82 96.569C105.663 95.5757 105.506 93.9028 105.506 92.9095C105.558 91.2366 105.767 90.9229 108.695 89.25C122.967 81.0945 126.574 60.9149 116.066 48.002L114.184 45.7018V38.5919C114.132 31.7956 114.08 31.3251 112.511 27.7179C110.891 24.0061 110.891 23.9538 111.988 23.6924C114.55 23.0651 118.105 20.1897 119.098 17.994C120.876 14.0731 119.987 8.53156 117.216 6.02219C114.707 3.82648 109.845 2.88547 106.917 3.98331C106.186 4.24469 104.774 5.23801 103.781 6.12674L101.899 7.74738L101.114 6.49271C100.173 5.08118 97.0367 3.25143 94.6842 2.72864C92.2794 2.25812 88.9858 3.30368 86.6855 5.39484L84.699 7.22461L82.7646 5.91763C80.0461 4.03558 77.6936 3.72195 74.8706 4.81979C72.6748 5.65625 69.9564 8.37473 69.9564 9.73398C69.9564 10.1522 69.1199 10.2045 67.2379 10.0477C62.2714 9.4726 58.455 12.7661 58.455 17.4189C58.455 18.9873 58.2459 19.7192 57.7754 19.7192C56.9912 19.7192 54.691 22.0718 53.8022 23.7447C52.9135 25.5222 53.1226 28.7112 54.325 30.6455L55.4229 32.4753L54.0636 33.4685C51.9725 34.9846 51.0314 37.2326 51.1883 40.317C51.3451 42.5128 51.0837 43.4538 49.6722 45.8586C47.2151 50.0932 46.64 53.5959 47.6856 57.7259C49.5154 65.254 55.2137 69.8546 62.7942 69.9068C65.3035 69.9068 66.2968 70.1159 66.2968 70.5865C66.2968 70.9524 67.0287 77.6964 67.8652 85.5905C68.7539 93.4846 69.4336 100.333 69.4336 100.804C69.4336 101.483 68.388 101.745 63.2647 102.215C53.384 103.104 48.6789 105.247 42.6668 111.625C37.3867 117.271 33.7272 125.531 32.3156 134.994L31.6883 139.176L29.4403 140.117C25.8854 141.633 22.6441 144.822 20.7098 148.743C17.939 154.337 18.0435 157.003 21.8076 175.771C23.5851 184.345 24.9966 192.448 24.9966 193.703C24.9966 195.01 24.3693 201.127 23.6374 207.348C22.435 217.176 22.3304 219.163 22.8532 222.509C23.7419 228.364 25.9899 232.546 30.7996 237.303L34.8773 241.329L37.0207 252.203C38.1709 258.163 39.5301 263.809 39.9483 264.75C41.0985 267.05 43.5033 268.043 47.6856 268.043C51.0314 268.043 51.136 268.096 50.8746 269.193C50.77 269.873 49.3062 279.074 47.6856 289.739C46.1172 300.352 44.4966 310.075 44.1829 311.278C43.6079 313.526 43.6079 313.526 41.1508 313.526C35.6615 313.526 29.5449 315.565 25.5194 318.754C23.01 320.74 20.1347 325.079 19.0368 328.425C17.939 331.823 7.22185 393.565 7.22185 396.335C7.27412 403.341 11.5087 410.555 18.2004 415.051C19.4551 415.888 19.0891 415.94 9.94034 415.94C1.6803 415.992 0.37333 416.097 0.0596571 416.829C-0.0971792 417.299 0.0596571 417.874 0.477887 418.136C0.896117 418.397 157 418.554 370.036 418.449L738.863 418.345L739.02 417.195C739.177 415.992 739.072 415.992 733.949 415.992H728.773L728.46 414.581C728.303 413.744 723.336 381.227 717.429 342.279C711.521 303.331 706.555 270.919 706.45 270.344C706.189 269.246 706.398 269.193 710.371 268.984C714.187 268.828 714.658 268.671 716.122 267.207C717.69 265.639 717.847 265.011 728.198 213.151C739.752 155.173 739.595 156.637 736.876 150.782C733.321 142.993 726.839 139.438 716.069 139.438H712.044L711.835 132.484C711.626 126.525 711.364 124.904 709.953 120.617C707.182 112.253 703.941 107.757 697.667 103.313C692.439 99.6534 687.159 98.0328 680.049 97.9283L674.56 97.8237L674.403 81.565L674.299 65.254L676.756 64.9403C687.421 63.5288 693.851 53.9095 690.714 43.9766C689.46 39.9511 685.173 35.4551 681.252 34.0436L678.533 33.1026L678.377 22.3332C678.22 12.3479 678.115 11.4592 677.017 9.36804C675.188 5.91763 672.417 3.14685 669.175 1.57849L666.196 0.114685L642.932 0.0101318C630.123 -0.0421448 619.092 0.114685 618.36 0.323792ZM666.3 3.2514C669.803 4.29697 673.305 7.43372 674.822 10.9364C675.919 13.3935 676.076 14.7005 676.285 23.1696L676.494 32.6321L673.253 33.2072C669.75 33.8345 666.457 35.5074 664.418 37.7031C663.686 38.435 662.954 39.0624 662.693 39.0624C662.484 39.0624 662.275 36.6575 662.275 33.6776C662.275 29.3908 662.066 28.0838 661.281 26.8814C659.138 23.5879 659.661 23.6401 638.226 23.3787C616.478 23.0651 617.001 23.1696 613.76 19.5101C609.316 14.4391 610.937 6.80637 617.001 3.7742L619.615 2.46722H641.625C659.661 2.46722 664.157 2.62405 666.3 3.2514ZM109.845 27.9793C111.361 31.2728 112.564 37.9122 112.093 39.8988C111.832 40.9444 111.518 41.1012 110.42 40.8398C108.799 40.4216 107.074 41.8332 107.074 43.5583C107.074 44.8653 109.165 46.6428 110.316 46.2768C111.204 45.9632 115.491 51.0342 117.164 54.38C118.942 58.0918 119.621 60.9672 119.621 65.4631C119.621 72.8344 117.478 77.8009 112.041 83.2902C108.277 87.0543 104.513 89.25 100.121 90.2955C96.8799 91.0274 90.3451 90.9229 87.4697 90.0341C84.699 89.25 84.0716 89.3545 84.0716 90.7661C84.0716 91.4457 84.7512 91.9162 86.581 92.439C89.2995 93.2231 97.2459 93.4323 100.644 92.7527L102.84 92.2821L103.153 94.687C103.362 96.0462 103.572 99.3921 103.624 102.215C103.676 106.816 103.519 107.6 102.212 110.266C97.7686 119.31 86.6855 121.872 78.2164 115.86C76.3344 114.501 73.7727 110.632 73.0931 108.07C72.5703 106.136 68.9108 73.305 68.9108 70.6387C68.9108 69.3318 69.2244 68.9135 70.7405 68.1816C72.6226 67.2929 73.1454 65.9337 71.8384 65.4109C71.4202 65.254 70.0609 65.6722 68.8062 66.2996C65.6695 67.9725 60.6507 67.9725 57.2526 66.2996C54.1159 64.7835 51.3451 61.5422 50.3518 58.1964C49.3585 54.9551 49.3585 53.4913 50.3518 50.25C52.2861 43.8197 59.1346 39.7943 65.8263 41.2058C70.7405 42.2513 74.5569 45.9109 76.0207 50.9297C76.648 53.0208 77.0663 53.7004 77.8504 53.7004C79.1051 53.7004 79.1051 53.9095 77.7459 42.565C76.5435 32.4229 76.7003 30.9069 79.2097 29.2862C80.3598 28.502 101.742 25.1562 106.342 24.9994C108.486 24.9471 108.538 24.9994 109.845 27.9793ZM658.301 27.2997C659.608 28.5021 659.661 28.8157 659.661 33.8345V39.0624H642.409H625.157V35.246C625.157 33.1548 625.523 30.175 625.941 28.7112L626.777 25.9927H641.834H656.89L658.301 27.2997ZM681.618 36.9712C684.232 38.2782 687.578 42.1468 688.309 44.7085C689.878 49.8318 688.309 55.4779 684.493 58.876C681.775 61.2285 679.37 62.1696 675.606 62.3264C673.88 62.431 672.312 62.4832 672.103 62.5355C671.894 62.5878 671.685 72.3116 671.58 84.1266C671.423 105.404 671.423 105.77 670.221 107.913C668.548 111.05 665.673 113.769 662.431 115.233C660.027 116.33 658.981 116.539 655.583 116.33C650.773 116.121 647.48 114.657 644.657 111.573C641.468 108.018 640.684 105.509 640.422 98.1374L640.213 91.6025L645.859 91.5502C650.251 91.498 652.289 91.2366 654.642 90.3478C659.19 88.7272 662.275 86.7929 662.275 85.5905C662.275 84.1789 661.386 84.2835 658.04 86.1133C652.551 89.0409 645.859 89.9296 640.056 88.4658C630.855 86.1133 624.111 79.683 621.393 70.7956C619.302 63.7902 621.131 52.132 624.425 52.132C626.15 52.132 628.346 51.191 629.757 49.8841L631.012 48.7339L630.803 51.0865L630.646 53.439L635.142 53.5959C638.645 53.7004 639.795 53.5436 640.265 52.9685C641.363 51.6093 640.37 51.0865 636.867 51.0865C634.306 51.0865 633.521 50.9297 633.521 50.3023C633.521 49.675 634.096 46.5905 634.881 42.8264C635.299 40.7876 636.658 41.7286 637.965 44.9699C638.645 46.6428 639.638 48.5248 640.161 49.0999C642.618 51.8184 647.427 52.864 650.93 51.4524C653.335 50.4069 656.21 46.9565 656.995 44.1334C657.517 42.3036 657.988 41.6763 658.667 41.6763C659.556 41.6763 659.661 42.1468 659.661 45.9109C659.661 49.9886 659.713 50.0932 660.811 49.9363C661.804 49.8318 662.065 49.3613 662.327 47.3747C663.634 38.2259 673.567 32.8412 681.618 36.9712ZM623.797 42.931C623.432 44.3425 625.052 46.3814 626.568 46.3814C627.927 46.3814 629.339 44.7607 629.339 43.1401C629.339 42.1991 629.6 41.6763 630.123 41.6763C632.005 41.6763 630.437 45.8586 627.771 48.1589C624.686 50.7205 619.667 49.5704 617.315 45.7541C616.74 44.813 616.269 43.5061 616.269 42.8264C616.269 41.7286 616.478 41.6763 620.19 41.6763C624.111 41.6763 624.111 41.6763 623.797 42.931ZM643.611 43.2447C643.245 44.6039 644.814 46.3814 646.33 46.3814C647.846 46.3814 649.414 44.6039 649.048 43.2447C648.787 42.3036 648.996 42.1991 651.819 42.1991H654.903L654.381 43.872C654.119 44.813 652.969 46.486 651.871 47.5315C650.146 49.1522 649.362 49.5181 647.637 49.5181C643.977 49.5181 640.945 47.1656 640.056 43.6106C639.69 42.2514 639.742 42.1991 641.781 42.1991C643.611 42.1991 643.873 42.3036 643.611 43.2447ZM113.87 102.738C113.87 108.227 110.734 115.18 106.395 119.467C95.8343 129.818 80.4644 130.08 69.695 119.99C66.0877 116.644 63.1078 111.573 62.1668 107.182C61.7486 105.09 61.7486 105.038 63.3169 104.724C64.1534 104.568 65.9832 104.411 67.2901 104.411H69.7472L70.3746 107.495C72.4135 117.271 83.2874 123.859 92.959 121.14C100.383 119.101 105.924 111.939 106.29 103.993L106.395 101.013L109.479 100.699C111.152 100.542 112.877 100.385 113.243 100.333C113.661 100.281 113.87 101.013 113.87 102.738ZM527.866 110.684C530.114 111.312 532.937 114.03 533.669 116.121C533.93 117.01 536.283 131.543 538.792 148.377C541.354 165.263 543.602 179.326 543.811 179.64C544.072 180.058 547.575 180.215 555.103 180.215H566.029L564.879 181.417C564.252 182.097 563.52 183.038 563.206 183.509C562.736 184.397 558.867 184.45 501.779 184.397C468.32 184.397 440.77 184.24 440.613 183.979C439.881 183.143 430.575 118.944 430.889 117.219C431.359 114.867 433.503 112.357 436.169 111.155C438.156 110.214 440.717 110.161 482.174 110.161C509.412 110.161 526.768 110.371 527.866 110.684ZM549.614 140.745C559.495 144.352 561.847 145.345 561.638 145.711C561.534 145.92 560.488 146.234 559.39 146.391C553.064 147.227 549.928 152.089 553.43 155.644C554.476 156.637 555.835 157.265 558.031 157.735C559.704 158.049 561.586 158.572 562.161 158.781C563.102 159.199 563.102 159.251 561.847 159.251C559.076 159.356 554.894 160.976 553.169 162.702C551.339 164.531 550.869 167.145 551.966 169.289C553.221 171.537 561.272 173.837 568.643 173.994C570.264 174.046 572.303 174.255 573.139 174.412C574.656 174.778 574.603 174.83 571.832 175.667C563.677 178.072 552.228 178.228 546.686 175.98C545.432 175.458 545.275 175.092 544.177 167.511C543.497 163.12 542.87 159.042 542.713 158.362L542.452 157.16L544.438 158.519C546.111 159.669 546.895 159.826 549.353 159.722C551.81 159.565 552.228 159.408 552.228 158.519C552.228 157.631 551.81 157.421 549.248 157.212C544.02 156.742 542.034 153.867 540.779 145.188C540.308 141.895 539.786 138.653 539.629 138.026L539.42 136.824L542.138 137.922C543.654 138.497 547.052 139.804 549.614 140.745ZM28.9175 163.329C27.6106 174.464 26.4604 183.822 26.3559 184.136C26.3036 184.397 25.0489 178.542 23.5328 171.066C20.3438 154.598 20.3961 152.769 24.8398 146.809C26.3036 144.875 30.9041 141.738 31.1655 142.522C31.2701 142.783 30.2245 152.141 28.9175 163.329ZM726.107 143.463C729.453 144.927 732.694 148.011 734.263 151.148C736.981 156.48 737.138 155.226 726.055 210.746L715.965 261.247L695.001 261.195C679.945 261.195 674.403 261.038 675.344 260.62C680.415 258.529 686.584 255.183 689.46 252.987C696.151 247.916 702.163 240.231 705.3 232.755C706.137 230.769 707.548 228.259 708.332 227.161C709.169 226.116 710.528 223.868 711.312 222.195L712.724 219.163L712.88 203.113C712.985 194.33 712.828 177.131 712.567 164.95C712.253 152.821 712.201 142.627 712.358 142.365C712.462 142.104 715.076 142.052 718.161 142.156C722.238 142.313 724.33 142.679 726.107 143.463ZM582.131 149.109C591.698 150.364 596.769 151.671 609.421 156.01C621.915 160.297 623.954 161.395 627.091 165.472C629.391 168.505 630.385 172.164 630.385 177.549C630.385 181.417 630.175 182.515 628.869 185.181C626.098 191.037 620.295 195.219 614.178 195.742C609.944 196.16 606.65 194.905 602.311 191.35C597.867 187.691 593.371 185.547 589.346 185.129C586.889 184.868 584.745 185.129 579.361 186.436C571.205 188.37 567.702 188.527 566.343 187.011C564.043 184.502 566.761 182.045 577.426 176.974C582.393 174.621 583.909 173.68 583.752 173.001C583.595 172.216 582.497 172.06 574.708 171.746C564.304 171.275 559.442 170.648 556.253 169.236C554.162 168.295 554.005 168.086 554.162 166.518C554.476 163.015 558.763 161.656 571.466 161.029C577.844 160.767 578.629 160.61 578.629 159.774C578.629 158.572 578.576 158.572 566.866 156.69C556.933 155.069 554.58 154.285 554.58 152.612C554.58 151.043 555.417 150.312 558.292 149.318C561.952 148.064 573.349 147.959 582.131 149.109ZM622.595 156.167C626.934 157.526 630.646 160.349 633.365 164.479C636.292 168.766 637.39 172.53 637.39 178.124C637.338 198.251 615.903 209.439 601.788 196.735C599.488 194.644 596.926 191.194 597.71 191.194C597.919 191.194 599.383 192.291 601.004 193.651C605.552 197.362 607.905 198.251 613.133 198.251C616.897 198.251 618.047 198.042 620.608 196.84C624.791 194.853 628.973 190.723 631.064 186.541C632.685 183.247 632.737 182.829 632.737 177.078C632.685 169.184 631.587 166.152 627.039 161.604C624.477 159.042 623.066 158.101 619.667 156.794C615.903 155.33 615.642 155.173 617.367 155.121C618.413 155.121 620.765 155.592 622.595 156.167ZM213.462 164.009C217.539 164.793 228.936 165.577 235.889 165.577C242.633 165.577 248.07 166.257 248.959 167.145C249.9 168.086 247.234 169.968 243.208 171.223C241.222 171.85 236.569 172.948 232.805 173.68C227.577 174.673 225.067 175.458 221.983 177.078C218.846 178.699 217.382 179.169 215.291 179.169C213.357 179.169 212.573 179.379 212.311 180.006C211.893 181.208 213.043 181.783 216.023 181.783C218.062 181.783 219.421 181.313 222.453 179.64C225.59 177.967 227.786 177.235 233.746 176.033C237.823 175.196 242.319 174.151 243.783 173.732L246.397 172.896L252.148 175.824C258.16 178.856 266.002 183.77 266.002 184.502C266.002 184.763 253.35 184.868 237.928 184.816L209.802 184.659L207.868 175.51C206.822 170.491 205.829 165.577 205.62 164.584L205.306 162.858L208.077 163.224C209.593 163.381 212.05 163.747 213.462 164.009ZM180.526 167.877C185.597 169.08 187.688 170.387 187.479 172.269C187.218 174.36 185.283 174.987 177.494 175.562C173.677 175.824 168.136 176.242 165.104 176.451C159.928 176.817 159.614 176.869 159.458 177.967C159.353 178.699 159.562 179.169 159.98 179.169C162.124 179.169 174.566 180.842 177.807 181.574C185.126 183.247 188.368 185.704 186.277 188.005C184.656 189.834 180.369 190.305 170.332 189.887C165.313 189.677 160.242 189.468 159.092 189.416C157.366 189.364 157 189.521 157 190.357C157 191.037 158.83 192.396 163.169 195.062C172.893 200.917 175.403 204.002 172.161 206.145C170.488 207.243 168.293 206.877 160.451 204.159C150.57 200.708 145.342 200.917 138.964 204.995C137.396 206.041 134.625 207.609 132.795 208.498C129.868 209.962 129.136 210.118 125.999 209.909C119.883 209.491 114.498 205.884 111.413 200.029C110.054 197.467 109.95 196.735 109.95 191.716C109.95 186.645 110.054 185.966 111.57 182.829C113.4 178.96 116.171 176.033 119.307 174.464C121.869 173.262 141.631 168.452 147.277 167.668C149.472 167.407 151.982 167.041 152.818 166.936C153.707 166.832 159.458 166.779 165.626 166.832C174.043 166.936 177.807 167.198 180.526 167.877ZM446.991 187.377L472.451 187.691L469 189.73C458.074 196.108 450.18 206.198 447.357 217.333C445.997 222.613 446.154 231.082 447.67 235.369C448.193 236.781 451.644 244.309 455.355 252.098C459.119 259.836 462.727 267.468 463.406 268.932L464.661 271.651L436.378 304.22C420.851 322.152 407.991 337.104 407.782 337.522C407.625 338.045 408.409 339.09 410.03 340.554C411.441 341.756 412.487 342.854 412.33 343.011C412.225 343.116 410.5 343.743 408.461 344.423C405.272 345.416 403.39 345.625 393.823 345.834C387.811 345.939 378.14 345.782 372.337 345.416C364.129 344.945 361.149 344.945 358.744 345.416C353.987 346.357 349.282 348.919 345.674 352.474C342.695 355.506 339.715 360.315 339.715 362.145C339.715 362.772 348.393 367.112 370.716 377.567L401.665 392.153L421.27 390.794C432.039 390.01 440.926 389.435 440.979 389.539C441.083 389.644 439.358 393.356 437.162 397.904C435.019 402.4 433.294 406.321 433.398 406.582C433.503 406.896 437.319 408.882 441.92 411.078C446.52 413.221 450.493 415.208 450.807 415.522C451.068 415.835 422.838 415.94 375.264 415.888L299.199 415.731L299.042 412.594C298.519 400.361 291.514 391.108 280.117 387.5C271.909 384.886 264.486 379.397 261.663 373.803L260.303 371.189L264.747 361.831C267.204 356.708 269.661 352.108 270.236 351.585C270.759 351.114 271.23 350.226 271.23 349.65C271.23 347.716 275.935 338.201 277.033 337.94C277.764 337.731 278.026 337.208 278.026 335.953C278.026 333.653 305.629 275.99 306.936 275.571C307.511 275.415 307.825 274.735 307.825 273.742C307.825 272.853 308.975 269.769 310.386 266.789C312.268 262.763 313.209 261.352 314.098 261.09C314.987 260.881 315.196 260.515 314.987 259.679C314.83 258.999 315.928 256.071 318.071 251.523C319.953 247.655 322.358 241.956 323.404 238.872C325.181 233.644 325.286 232.86 325.286 227.005C325.233 214.928 321.051 205.309 312.112 196.84C308.295 193.232 303.851 190.305 299.983 188.789C298.676 188.318 297.421 187.691 297.16 187.429C296.532 186.907 410.187 186.854 446.991 187.377ZM545.954 188.632C541.249 189.991 535.865 192.657 531.63 195.794C529.121 197.624 520.547 207.191 497.701 233.539C480.867 252.935 466.961 268.88 466.752 268.984C466.177 269.193 450.598 236.362 449.762 233.121C448.768 229.462 448.768 222.195 449.709 218.378C452.846 205.57 463.093 194.226 476.162 189.259L480.606 187.586H515.11H549.614L545.954 188.632ZM591.28 188.109C592.953 188.527 593.476 189.05 594.678 191.612C596.508 195.376 601.527 200.499 605.291 202.329C606.859 203.061 624.634 211.007 644.761 219.947C676.495 234.01 681.879 236.206 685.016 236.624C690.505 237.303 697.301 236.049 700.856 233.748C701.536 233.278 702.216 233.017 702.32 233.121C702.791 233.644 696.988 242.218 694.06 245.354C687.734 252.098 679.318 257.065 670.639 259.156C666.457 260.149 664.523 260.202 636.658 260.202C620.399 260.202 602.729 260.045 597.344 259.836L587.568 259.522L590.653 256.019C592.378 254.085 593.789 252.098 593.789 251.68C593.789 250.478 592.849 250.059 591.907 250.844C590.966 251.628 513.176 342.802 488.448 372.078C479.613 382.586 472.189 391.16 471.98 391.16C471.719 391.16 458.335 379.502 442.129 365.282C425.922 351.062 412.225 339.038 411.703 338.62C410.814 337.835 414.055 334.019 469.105 270.396C501.204 233.278 528.546 201.911 529.905 200.656C537.538 193.494 546.216 190.148 559.181 189.364C563.52 189.102 564.722 189.207 565.664 189.887C567.441 191.089 571.832 190.828 578.89 189.155C585.739 187.482 588.3 187.273 591.28 188.109ZM119.83 211.112C125.476 213.569 131.436 212.837 137.344 208.916C139.121 207.714 140.69 206.877 140.846 207.034C141.317 207.505 135.618 213.203 133.527 214.353C131.854 215.242 130.495 215.503 127.463 215.503C122.706 215.451 119.307 213.935 115.648 210.171C112.825 207.191 112.668 206.25 115.334 208.393C116.38 209.282 118.419 210.484 119.83 211.112ZM48.7312 244.518C51.136 244.518 54.1682 244.204 55.4751 243.786L57.88 243.054L59.5529 246.034C62.1145 250.582 67.3424 255.392 72.5703 257.954L77.014 260.149L59.1346 260.202C49.254 260.202 41.203 260.097 41.203 260.045C41.203 259.94 40.5234 256.333 39.6347 252.098C37.4912 241.643 37.3867 242.322 41.2553 243.525C43.2942 244.152 45.9604 244.518 48.7312 244.518ZM122.653 286.027C125.32 295.908 127.463 304.482 127.463 305.057C127.463 305.684 123.228 315.408 118.053 326.648C112.877 337.888 108.643 347.193 108.643 347.246C108.643 347.35 110.263 347.664 112.198 348.03L115.805 348.605L116.118 370.614C116.328 382.743 116.484 397.904 116.484 404.334V415.992H108.277C103.781 415.992 100.226 415.888 100.33 415.783C100.435 415.679 101.794 414.633 103.31 413.483C108.852 409.353 112.302 402.766 112.302 396.388C112.302 392.571 101.48 330.726 100.226 327.432C97.1936 319.381 89.8745 314.362 80.1507 313.683L75.8116 313.369L75.4979 311.748C74.9751 309.187 72.7794 306.364 70.1132 304.795C67.6561 303.384 67.3947 303.331 59.762 303.331C52.5998 303.331 51.7633 303.436 49.9859 304.482C48.888 305.109 47.9993 305.527 47.9993 305.318C47.9993 304.743 53.2271 270.448 53.4885 269.193L53.7499 268.043H85.8491H117.896L122.653 286.027ZM144.192 268.252C144.192 268.357 142.572 272.278 140.585 276.983C138.285 282.42 136.664 285.609 136.141 285.714C135.618 285.818 135.305 286.445 135.305 287.491C135.305 289.007 130.234 300.979 129.606 300.979C129.345 300.979 122.287 275.049 120.771 268.775C120.614 268.148 122.758 268.043 132.377 268.043C138.86 268.043 144.192 268.148 144.192 268.252ZM636.919 269.716C636.763 270.082 628.084 302.756 617.576 342.279C607.068 381.802 598.338 414.581 598.181 415.051C597.919 415.94 596.247 415.992 572.826 415.992C559.076 415.992 547.784 415.888 547.784 415.731C547.784 414.947 570.473 384.625 570.787 384.991C570.996 385.2 572.617 388.807 574.446 392.99C576.224 397.172 577.949 400.884 578.315 401.197C578.786 401.72 581.504 400.675 590.81 396.44C597.397 393.46 602.991 390.794 603.252 390.532C603.566 390.219 600.377 382.534 594.051 368.628C588.718 356.865 584.222 346.775 584.066 346.148C583.804 345.154 584.379 344.789 589.346 342.802C592.43 341.547 595.044 340.24 595.201 339.874C595.358 339.456 589.764 326.752 582.811 311.592C575.806 296.378 569.846 283.361 569.584 282.629C569.114 281.374 569.428 280.799 574.237 275.206L579.413 269.141L608.271 269.089C631.169 269.089 637.076 269.246 636.919 269.716ZM703.836 270.239C704.568 273.637 725.898 415.26 725.689 415.574C725.584 415.835 697.511 415.992 663.32 415.992C629.13 415.992 601.056 415.835 600.952 415.574C600.847 415.313 638.488 273.219 639.742 269.193C639.795 269.141 654.119 269.089 671.685 269.089H703.575L703.836 270.239ZM579.988 311.592C586.784 326.439 592.273 338.724 592.169 338.829C592.012 338.933 518.979 368.314 515.267 369.726C514.796 369.935 513.385 367.425 511.085 362.563C509.15 358.433 507.53 354.826 507.425 354.46C507.216 353.728 566.761 283.727 567.232 284.197C567.389 284.354 573.139 296.692 579.988 311.592ZM67.9175 306.52C70.1655 307.462 73.0931 310.807 73.0931 312.585C73.0931 313.474 72.4135 313.526 60.0234 313.526H46.9537V312.323C46.9537 310.389 48.7835 307.984 51.1883 306.834C53.1749 305.841 54.3773 305.684 59.6052 305.684C64.1011 305.684 66.3491 305.893 67.9175 306.52ZM84.8558 316.924C90.6587 318.44 95.9389 323.041 97.8732 328.268C98.3437 329.523 101.219 344.736 104.251 362.145C110.42 397.538 110.525 398.792 107.911 404.177C106.081 407.941 102.631 411.339 98.8142 413.221L95.8343 414.685H59.762C23.7419 414.685 23.6897 414.685 21.1803 413.535C17.4685 411.81 13.3385 407.628 11.6655 403.864C9.10388 398.217 9.15616 397.59 15.2728 362.668C18.3572 345.259 21.0757 330.203 21.4417 329.209C22.2258 326.596 25.258 322.204 27.2446 320.688C29.7017 318.806 33.1521 317.185 35.6092 316.663C36.8116 316.453 47.6856 316.244 59.762 316.192C78.0596 316.14 82.2941 316.297 84.8558 316.924ZM441.554 368.209C456.14 381.07 468.007 391.839 467.902 392.153C467.275 394.297 457.081 414.947 456.662 414.947C455.983 414.947 436.953 406.007 436.692 405.536C436.587 405.327 438.365 401.25 440.717 396.44C443.906 390.01 444.847 387.605 444.429 387.187C443.959 386.716 438.888 386.925 424.825 387.971C414.369 388.703 404.906 389.33 403.808 389.33C402.188 389.33 395.13 386.246 372.703 375.685C356.705 368.157 343.426 361.831 343.113 361.57C341.806 360.315 347.713 353.205 352.366 350.487C357.124 347.716 360.208 347.298 371.082 347.978C383.211 348.709 399.574 348.709 404.018 347.978C405.9 347.716 408.932 346.88 410.814 346.2C412.696 345.52 414.369 344.998 414.63 344.945C414.839 344.893 426.968 355.401 441.554 368.209ZM590.444 366.85C595.515 377.933 599.802 387.5 600.063 388.075C600.533 389.278 601.109 388.964 583.752 396.858L579.727 398.688L575.962 390.062C572.303 381.697 571.31 380.077 570.369 380.652C570.159 380.809 564.304 388.546 557.456 397.904L544.961 414.947H512.391H479.822V413.431C479.822 410.503 480.92 406.268 482.436 403.132C485.207 397.433 489.598 394.244 500.001 390.376C509.255 386.925 515.999 380.756 518.456 373.594L519.345 370.928L549.614 358.695C566.291 352.003 580.249 346.566 580.615 346.618C580.981 346.671 585.425 355.767 590.444 366.85ZM137.657 352.474C146.858 354.094 159.667 356.394 166.149 357.545C172.632 358.747 178.853 359.793 180.003 359.949C181.99 360.158 182.199 360.368 183.61 363.4C185.44 367.216 192.08 374.065 196.523 376.679C198.196 377.62 203.476 380.234 208.338 382.482C216.023 386.089 219.317 387.396 229.825 391.212C237.614 394.087 244.515 403.184 245.456 411.862L245.77 414.947H213.252H180.683L171.743 410.032C166.777 407.366 158.36 402.766 153.027 399.838C147.643 396.963 143.042 394.558 142.728 394.558C141.787 394.558 141.683 395.708 141.996 405.38L142.258 414.947H130.757H119.255L118.942 393.356C118.732 381.541 118.576 366.693 118.576 360.42V349.075L119.778 349.337C120.405 349.441 128.456 350.905 137.657 352.474ZM230.661 361.413L257.428 370.091L258.317 372.653C260.669 379.188 267.831 385.514 276.562 388.755C278.967 389.644 282.208 391.003 283.776 391.787C287.331 393.565 291.932 398.061 293.866 401.72C295.33 404.491 296.846 410.189 296.846 413.221V414.947H272.641H248.488L247.809 410.921C247.077 406.216 244.881 401.197 241.849 397.276C238.608 393.094 234.112 390.166 226.949 387.553C216.337 383.684 200.758 376.574 196.21 373.49C192.968 371.294 187.845 365.961 186.329 363.191L184.97 360.734L190.354 361.675C198.248 363.138 197.569 363.4 200.13 357.701C201.437 354.774 202.692 352.735 203.11 352.735C203.529 352.735 215.919 356.656 230.661 361.413ZM509.202 364.602C511.189 368.837 513.071 372.496 513.385 372.653C513.698 372.862 514.378 372.862 514.953 372.705C515.842 372.496 515.946 372.653 515.633 373.699C515.058 375.79 511.764 380.286 509.464 382.168C506.327 384.73 501.988 387.03 497.701 388.494C485.207 392.78 478.881 399.838 477.574 411.078L476.999 415.992H468.477C463.772 415.992 459.956 415.835 459.956 415.574C459.956 415.365 462.256 410.346 465.027 404.386C469.418 395.133 470.255 393.669 471.039 394.087C471.509 394.349 472.137 394.558 472.398 394.558C472.66 394.558 480.135 385.984 488.971 375.476C497.858 364.968 505.177 356.499 505.334 356.604C505.438 356.76 507.164 360.315 509.202 364.602ZM149.42 400.727L153.864 403.236L155.223 408.15C155.955 410.869 156.739 413.744 156.948 414.528L157.262 415.992H150.988H144.715V412.699C144.715 410.869 144.558 406.843 144.349 403.811C144.192 400.57 144.244 398.217 144.506 398.217C144.767 398.27 146.963 399.368 149.42 400.727ZM169.286 411.601L176.866 415.731L168.763 415.888C161.915 415.992 160.555 415.888 160.085 415.208C159.562 414.528 157.262 406.321 157.262 405.223C157.262 405.066 158.255 405.484 159.51 406.216C160.712 406.896 165.104 409.353 169.286 411.601Z" fill="#C73E24"/>
<path d="M102.578 40.8399C102.421 41.2581 102.892 43.6107 103.624 46.0155C105.506 52.2367 105.558 52.0798 101.742 52.2367C98.8665 52.3935 98.4483 52.498 98.4483 53.4391C98.4483 54.6938 100.592 55.0074 104.983 54.3801C107.754 53.9619 107.858 53.8573 107.806 52.3935C107.649 49.5182 104.46 40.108 103.624 40.108C103.206 40.108 102.735 40.4217 102.578 40.8399Z" fill="#D65B44"/>
<path d="M90.5019 43.297C88.8813 43.872 88.4108 46.12 89.5609 47.427C90.8679 48.8385 92.7499 48.734 93.7432 47.2179C95.207 45.0222 92.959 42.3559 90.5019 43.297Z" fill="#D65B44"/>
<path d="M56.0502 49.2567C55.5274 50.5114 56.1548 50.8774 61.2781 52.1321C64.0489 52.864 66.2969 53.5436 66.2969 53.7527C66.2969 53.9095 64.8853 54.6937 63.1601 55.4779C60.1802 56.8372 59.3438 57.8827 60.5985 58.7192C61.3826 59.1897 71.5247 54.2232 71.5247 53.3345C71.5247 52.3935 71.0542 52.2366 63.9443 50.25C56.4162 48.2112 56.4162 48.2112 56.0502 49.2567Z" fill="#D65B44"/>
<path d="M110.42 62.1696C109.95 64.4699 108.904 65.9859 107.283 66.6656C104.094 68.1294 100.33 66.8224 98.7097 63.6857C97.5595 61.3854 97.089 61.124 96.0957 62.3264C95.6252 62.9015 95.7298 63.4766 96.6185 65.0449C98.3437 68.1816 100.905 69.6454 104.513 69.6454C107.911 69.6454 109.636 68.7044 111.675 65.7245C113.139 63.5288 113.243 60.4967 111.832 60.4967C111.1 60.4967 110.682 61.0195 110.42 62.1696Z" fill="#D65B44"/>
<path d="M673.515 45.3358C665.411 48.5771 665.307 49.0476 672.469 51.6615C677.749 53.5959 679.004 53.7004 679.004 52.2889C679.004 51.6615 677.331 50.7728 673.096 49.0999C672.364 48.7862 673.462 48.1589 677.279 46.6428C680.572 45.2835 682.402 44.2902 682.402 43.7674C682.402 42.3559 679.893 42.7742 673.515 45.3358Z" fill="#D65B44"/>
<path d="M634.462 60.7058C631.378 61.0194 628.712 61.4377 628.555 61.6468C627.98 62.2218 628.816 65.8814 630.019 68.0771C632.214 71.998 637.285 73.3049 641.049 70.9524C643.35 69.5409 645.545 65.3063 645.545 62.2218V59.9739L642.827 60.0261C641.311 60.0784 637.547 60.3921 634.462 60.7058ZM642.931 63.4243C642.931 63.8948 642.409 65.1495 641.834 66.2473C639.272 70.7956 634.044 70.7433 631.953 66.1428C631.43 64.8881 631.169 63.8425 631.378 63.7379C631.901 63.5811 639.429 62.7446 641.52 62.6401C642.513 62.5878 642.931 62.8492 642.931 63.4243Z" fill="#D65B44"/>
<path d="M41.9349 336.215C41.7781 336.633 41.7781 337.26 41.9872 337.574C42.1963 337.888 48.2607 338.097 60.0757 338.097H77.8504L77.6936 336.894L77.5368 335.744L59.8665 335.587C44.758 335.483 42.1963 335.587 41.9349 336.215Z" fill="#D65B44"/>
<path d="M56.3639 348.814C52.1816 350.121 48.5744 354.826 48.5221 358.956C48.4698 365.386 53.4886 370.51 59.762 370.51C66.4014 370.51 71.5247 364.968 70.8974 358.486C70.2178 351.323 63.1601 346.671 56.3639 348.814ZM64.4671 352.212C71.5247 356.551 68.2312 367.896 59.9188 367.896C56.7821 367.896 54.7955 366.902 52.9658 364.498C50.3518 361.1 50.7178 356.394 53.9068 353.258C56.7821 350.435 60.9121 350.016 64.4671 352.212Z" fill="#D65B44"/>
<path d="M43.5556 379.345C42.3532 379.868 40.9939 380.965 40.4711 381.75C38.5368 384.677 38.5368 385.984 40.2097 393.46C41.9349 401.302 42.7714 403.132 45.3853 404.857C47.0582 406.007 47.5288 406.059 59.6051 406.059C73.0408 406.059 73.6681 405.955 76.1775 403.236C77.6936 401.616 81.1963 387.919 80.7258 385.409C80.203 382.743 78.4255 380.443 76.073 379.397C74.0864 378.456 72.5703 378.352 59.762 378.352C47.1628 378.352 45.4376 378.456 43.5556 379.345ZM75.4979 381.959C78.5301 383.788 78.6869 385.357 76.8049 393.408C75.3933 399.629 74.9751 400.779 73.6158 401.982L72.0475 403.445H59.8143C48.2607 403.445 47.5288 403.393 46.2218 402.347C44.758 401.197 44.0261 399.158 42.2486 391.003C41.2553 386.402 41.2553 386.036 42.0395 384.311C43.5556 381.122 44.0784 381.018 59.762 380.965C72.6748 380.965 74.0341 381.07 75.4979 381.959Z" fill="#D65B44"/>
<path d="M247.286 20.8694C246.397 21.7581 247.495 22.856 249.273 22.856C252.2 22.856 254.134 25.9927 252.775 28.6066C252.305 29.4954 251.416 30.0704 249.795 30.4887C247.286 31.116 246.397 32.4752 248.175 33.0503C249.691 33.5208 253.35 32.3707 254.082 31.2206C254.709 30.2273 254.762 30.2273 255.86 31.2728C257.323 32.6321 260.617 33.4163 261.924 32.7366C263.388 31.9525 262.813 31.0637 260.46 30.5932C255.494 29.5999 255.232 23.6924 260.146 23.2742C261.715 23.1696 262.133 22.9082 262.238 21.9149C262.394 20.9216 262.185 20.7648 260.408 20.7648C259.31 20.7648 257.637 21.2353 256.748 21.8104L255.023 22.856L253.141 21.549C251.102 20.1375 248.331 19.8238 247.286 20.8694Z" fill="#D65B44"/>
<path d="M429.982 32.7466C413.917 38.304 404.153 45.2572 387.605 63.111C377.248 74.2715 374.775 76.6332 369.565 80.2668C362.865 84.9282 357.294 87.1852 347.279 89.2951C334.781 91.9674 329.706 94.4571 323.552 100.995L321.554 102.992L323.028 103.993C324.425 104.854 324.644 104.749 326.831 102.426C331.101 97.8695 336.622 95.244 347.036 93.0798C365.132 89.1974 372.528 84.5167 389.103 66.4342C405.925 48.0181 417.037 40.2816 432.993 35.6392C442.632 32.905 442.47 33.002 441.907 31.4277C441.452 30.2139 440.907 30.0627 438.174 30.5088C436.413 30.823 432.759 31.7693 429.982 32.7466Z" fill="#D65B44"/>
<path d="M444.795 71.0047C434.967 72.2594 425.295 75.1347 416.983 79.317C410.866 82.4015 407.259 84.7017 395.705 92.8572C382.322 102.372 376.362 105.404 367.422 107.234C364.547 107.809 364.077 108.07 364.181 108.907C364.286 109.43 364.495 110.005 364.599 110.109C364.756 110.266 367.109 109.848 369.932 109.22C376.624 107.704 385.511 103.261 394.085 97.1441C417.506 80.3626 427.438 75.8143 445.266 73.5663C448.977 73.0436 450.023 72.5731 450.023 71.057C450.023 70.3773 449.761 70.3773 444.795 71.0047Z" fill="#D65B44"/>
<path d="M335.794 103.418C335.376 104.777 335.585 104.934 340.708 107.077C345.361 109.011 347.295 109.273 347.295 107.861C347.295 107.182 346.459 106.607 344.106 105.718C342.381 105.09 339.976 104.045 338.774 103.418C336.108 102.058 336.212 102.058 335.794 103.418Z" fill="#D65B44"/>
<path d="M340.931 60.2947C340.826 60.5038 340.408 61.8107 340.042 63.17C339.519 65.2089 339.153 65.6794 338.212 65.6794C336.853 65.6794 335.598 66.9341 336.121 67.7705C336.278 68.0319 336.905 68.2933 337.533 68.2933C338.474 68.2933 338.578 68.5024 338.16 69.9662C337.271 73.6257 337.637 75.6646 339.467 77.2853C340.826 78.4877 341.558 78.7491 343.074 78.6445C344.59 78.5399 345.009 78.2786 345.009 77.4421C345.009 76.6579 344.59 76.3442 343.388 76.2397C342.447 76.1351 341.297 75.6123 340.826 75.0896C339.99 74.1485 339.938 73.8349 340.617 71.3255C341.297 68.7638 341.506 68.5547 343.179 68.2933C345.636 67.9274 346.002 66.3067 343.754 65.8885C342.342 65.5748 342.186 65.418 342.499 64.1633C343.127 61.7585 342.97 60.2424 342.029 60.0333C341.558 59.9287 341.088 60.0855 340.931 60.2947Z" fill="#D65B44"/>
</svg>
